<svg width="17" height="17" viewBox="0 0 17 17" fill="none" xmlns="http://www.w3.org/2000/svg">
<path d="M14.3438 17H2.65625C1.19155 17 0 15.8084 0 14.3438V2.65625C0 1.19155 1.19155 0 2.65625 0H14.3438C15.8084 0 17 1.19155 17 2.65625V11.0234C17 11.3902 16.7027 11.6875 16.3359 11.6875C15.9691 11.6875 15.6719 11.3902 15.6719 11.0234V2.65625C15.6719 1.92397 15.076 1.32812 14.3438 1.32812H2.65625C1.92397 1.32812 1.32812 1.92397 1.32812 2.65625V14.3438C1.32812 15.076 1.92397 15.6719 2.65625 15.6719H14.3438C15.076 15.6719 15.6719 15.076 15.6719 14.3438C15.6719 13.977 15.9691 13.6797 16.3359 13.6797C16.7027 13.6797 17 13.977 17 14.3438C17 15.8084 15.8084 17 14.3438 17ZM7.24165 13.2464C7.78471 13.2246 8.28327 12.9897 8.64578 12.5848C8.65188 12.578 8.65784 12.571 8.66368 12.564L13.9598 6.13311C14.193 5.84998 14.1526 5.43156 13.8694 5.19836C13.5863 4.96516 13.1678 5.00576 12.9347 5.28876L7.64865 11.7073C7.52855 11.837 7.36552 11.9123 7.18835 11.9194C7.00768 11.9267 6.83543 11.8619 6.70418 11.7372C6.69899 11.7324 6.6938 11.7274 6.68848 11.7228L4.19397 9.49856C3.92017 9.25446 3.50047 9.27846 3.25637 9.55225C3.01228 9.82592 3.03627 10.2458 3.31007 10.4899L5.79745 12.7077C6.1702 13.058 6.65048 13.2482 7.15929 13.2482C7.18653 13.248 7.21416 13.2475 7.24165 13.2464V13.2464Z" fill="#4B4B4B"/>
</svg>
