<svg width="87" height="38" viewBox="0 0 87 38" fill="none" xmlns="http://www.w3.org/2000/svg">
<path d="M0.835 37V0.549997H5.92V33.355H15.235V37H0.835ZM27.7721 37.405C25.3121 37.405 23.3471 36.925 21.8771 35.965C20.4071 35.005 19.3571 33.64 18.7271 31.87C18.0971 30.07 17.7821 27.97 17.7821 25.57V11.755C17.7821 9.355 18.0971 7.3 18.7271 5.59C19.3871 3.85 20.4371 2.53 21.8771 1.63C23.3471 0.699999 25.3121 0.234999 27.7721 0.234999C30.2321 0.234999 32.1821 0.699999 33.6221 1.63C35.0621 2.56 36.0971 3.88 36.7271 5.59C37.3871 7.3 37.7171 9.355 37.7171 11.755V25.615C37.7171 27.985 37.3871 30.055 36.7271 31.825C36.0971 33.595 35.0621 34.975 33.6221 35.965C32.1821 36.925 30.2321 37.405 27.7721 37.405ZM27.7721 33.4C29.1221 33.4 30.1421 33.13 30.8321 32.59C31.5221 32.02 31.9871 31.24 32.2271 30.25C32.4671 29.23 32.5871 28.045 32.5871 26.695V10.72C32.5871 9.37 32.4671 8.215 32.2271 7.255C31.9871 6.265 31.5221 5.515 30.8321 5.005C30.1421 4.465 29.1221 4.195 27.7721 4.195C26.4221 4.195 25.3871 4.465 24.6671 5.005C23.9771 5.515 23.5121 6.265 23.2721 7.255C23.0321 8.215 22.9121 9.37 22.9121 10.72V26.695C22.9121 28.045 23.0321 29.23 23.2721 30.25C23.5121 31.24 23.9771 32.02 24.6671 32.59C25.3871 33.13 26.4221 33.4 27.7721 33.4ZM51.3999 37.45C49.1199 37.45 47.2899 36.97 45.9099 36.01C44.5599 35.02 43.5699 33.595 42.9399 31.735C42.3399 29.875 42.0399 27.64 42.0399 25.03V12.835C42.0399 10.165 42.3099 7.9 42.8499 6.04C43.4199 4.15 44.4099 2.71 45.8199 1.72C47.2599 0.729998 49.2549 0.234999 51.8049 0.234999C54.0849 0.234999 55.9149 0.624999 57.2949 1.405C58.7049 2.155 59.7249 3.325 60.3549 4.915C60.9849 6.475 61.2999 8.455 61.2999 10.855V12.205H56.5299V11.08C56.5299 9.49 56.4249 8.2 56.2149 7.21C56.0049 6.19 55.5699 5.44 54.9099 4.96C54.2799 4.45 53.2749 4.195 51.8949 4.195C50.3949 4.195 49.2999 4.54 48.6099 5.23C47.9499 5.92 47.5299 6.865 47.3499 8.065C47.1999 9.235 47.1249 10.57 47.1249 12.07V25.57C47.1249 27.31 47.2449 28.765 47.4849 29.935C47.7549 31.105 48.2499 31.975 48.9699 32.545C49.6899 33.115 50.7099 33.4 52.0299 33.4C53.3499 33.4 54.3699 33.085 55.0899 32.455C55.8099 31.825 56.3049 30.895 56.5749 29.665C56.8449 28.435 56.9799 26.905 56.9799 25.075V22.555H52.3449V18.955H61.5699V37H58.3749L57.8799 32.815C57.3999 34.165 56.6499 35.275 55.6299 36.145C54.6099 37.015 53.1999 37.45 51.3999 37.45ZM76.1119 37.405C73.6519 37.405 71.6869 36.925 70.2169 35.965C68.7469 35.005 67.6969 33.64 67.0669 31.87C66.4369 30.07 66.1219 27.97 66.1219 25.57V11.755C66.1219 9.355 66.4369 7.3 67.0669 5.59C67.7269 3.85 68.7769 2.53 70.2169 1.63C71.6869 0.699999 73.6519 0.234999 76.1119 0.234999C78.5719 0.234999 80.5219 0.699999 81.9619 1.63C83.4019 2.56 84.4369 3.88 85.0669 5.59C85.7269 7.3 86.0569 9.355 86.0569 11.755V25.615C86.0569 27.985 85.7269 30.055 85.0669 31.825C84.4369 33.595 83.4019 34.975 81.9619 35.965C80.5219 36.925 78.5719 37.405 76.1119 37.405ZM76.1119 33.4C77.4619 33.4 78.4819 33.13 79.1719 32.59C79.8619 32.02 80.3269 31.24 80.5669 30.25C80.8069 29.23 80.9269 28.045 80.9269 26.695V10.72C80.9269 9.37 80.8069 8.215 80.5669 7.255C80.3269 6.265 79.8619 5.515 79.1719 5.005C78.4819 4.465 77.4619 4.195 76.1119 4.195C74.7619 4.195 73.7269 4.465 73.0069 5.005C72.3169 5.515 71.8519 6.265 71.6119 7.255C71.3719 8.215 71.2519 9.37 71.2519 10.72V26.695C71.2519 28.045 71.3719 29.23 71.6119 30.25C71.8519 31.24 72.3169 32.02 73.0069 32.59C73.7269 33.13 74.7619 33.4 76.1119 33.4Z" fill="#4B4B4B"/>
</svg>
