<svg width="100" height="100" viewBox="0 0 100 100" fill="none" xmlns="http://www.w3.org/2000/svg">
<path d="M86.9003 62.8592C85.1513 61.11 82.3048 61.1102 80.5552 62.8594L70.0117 73.4031L66.3261 69.7174C64.5769 67.9684 61.7304 67.9684 59.981 69.7174C58.2316 71.4668 58.2316 74.3135 59.981 76.0629L66.8392 82.9211C67.6867 83.7682 68.8134 84.235 70.0119 84.235C71.2103 84.235 72.3371 83.7682 73.1845 82.9209L86.9007 69.2047C87.7482 68.3574 88.215 67.2305 88.215 66.0318C88.2146 64.8338 87.748 63.7068 86.9003 62.8592ZM84.8191 67.1236L71.1027 80.84C70.8111 81.1317 70.4234 81.2922 70.0111 81.2922C69.5988 81.2922 69.2111 81.1317 68.9195 80.84L62.0613 73.9818C61.7701 73.6902 61.6095 73.3025 61.6095 72.8902C61.6095 72.4777 61.7701 72.0902 62.0617 71.7986C62.3626 71.4977 62.758 71.3471 63.1533 71.3471C63.5486 71.3471 63.9439 71.4977 64.2449 71.7986L68.9708 76.5248C69.2466 76.8006 69.621 76.9557 70.0113 76.9557C70.4015 76.9557 70.7759 76.8006 71.0517 76.5248L82.6357 64.9406C83.2376 64.3385 84.2171 64.3385 84.8189 64.9402C85.1107 65.232 85.2712 65.6197 85.2712 66.032C85.2714 66.4445 85.1107 66.832 84.8191 67.1236Z" fill="#4B4B4B"/>
<path d="M93.8182 56.2194V44.5511C93.8182 43.7382 93.1594 43.0796 92.3467 43.0796C91.534 43.0796 90.8752 43.7382 90.8752 44.5511V53.1993C88.9143 51.4931 86.7244 50.0933 84.3809 49.0335C84.2932 48.9937 84.2045 48.9558 84.1162 48.9169C84.0268 48.8776 83.9377 48.8376 83.8478 48.7993C83.6906 48.7319 83.5324 48.6673 83.3736 48.603C83.3535 48.5948 83.3334 48.5864 83.3131 48.5782C82 48.0505 80.6354 47.6253 79.2291 47.3114V38.6653C79.2291 37.8524 78.5703 37.1938 77.7576 37.1938H68.2772C67.4645 37.1938 66.8057 37.8524 66.8057 38.6653V47.5058C62.2234 48.6788 58.025 51.0679 54.6016 54.5124C54.0287 55.089 54.0316 56.0208 54.608 56.5935C55.1844 57.1659 56.116 57.1632 56.6891 56.587C61.1557 52.0923 67.1049 49.6169 73.4408 49.6169C73.6508 49.6169 73.8604 49.6198 74.0695 49.6253C74.1061 49.6263 74.1424 49.6284 74.1789 49.6294C74.3539 49.6349 74.5289 49.6413 74.7033 49.6507C74.731 49.6521 74.7582 49.6544 74.7859 49.656C74.9711 49.6665 75.1562 49.6786 75.3408 49.6935C75.3541 49.6946 75.3676 49.6958 75.3811 49.697C78.0998 49.921 80.7387 50.613 83.1883 51.7235C83.2727 51.762 83.3561 51.8021 83.44 51.8413C83.5262 51.8815 83.6125 51.9216 83.6982 51.963C83.8488 52.036 83.9988 52.1105 84.1477 52.1866C84.1623 52.194 84.1771 52.2013 84.1918 52.2089C91.8236 56.1272 97.0574 64.0806 97.0574 73.2331C97.0574 86.255 86.4633 96.8491 73.4412 96.8491C61.2348 96.8491 51.1615 87.5403 49.9479 75.6487C49.9473 75.6431 49.9469 75.6374 49.9463 75.6317C49.9275 75.4448 49.9107 75.2569 49.8961 75.0688C49.893 75.0284 49.8908 74.9876 49.8879 74.9472C49.8766 74.7894 49.866 74.6317 49.8576 74.4731C49.8531 74.3837 49.8502 74.294 49.8467 74.2044C49.842 74.0901 49.8367 73.9763 49.8336 73.8618C49.8283 73.6528 49.8252 73.4433 49.8252 73.2335C49.8252 68.9003 51.0086 64.6636 53.2475 60.9817C53.6697 60.2874 53.4492 59.3823 52.7549 58.9601C52.0602 58.5378 51.1553 58.7583 50.7332 59.4528C48.2139 63.5956 46.8824 68.3608 46.8824 73.2335C46.8824 73.4517 46.8855 73.6692 46.8906 73.8864C46.8918 73.9362 46.8939 73.9858 46.8955 74.0354C46.9006 74.2089 46.9068 74.3823 46.9152 74.5552C46.9172 74.5966 46.9197 74.6378 46.9221 74.6792C46.932 74.869 46.9443 75.0589 46.9582 75.2481C46.9596 75.2661 46.9609 75.2845 46.9623 75.3026C47.1508 77.772 47.677 80.1749 48.5377 82.4837H2.94277V58.6925C2.94277 57.8796 2.28398 57.221 1.47129 57.221C0.658594 57.221 0 57.8796 0 58.6925V83.9546C0 84.7675 0.658789 85.4261 1.47148 85.4261H49.8514C54.2766 93.9526 63.1893 99.7921 73.441 99.7921C88.0857 99.7921 100 87.8776 100 73.2333C100 66.7653 97.675 60.831 93.8182 56.2194ZM76.2863 46.6743H69.7486V40.1368H76.2863V46.6743Z" fill="#4B4B4B"/>
<path d="M25.6424 37.1938H16.1619C15.3492 37.1938 14.6904 37.8524 14.6904 38.6653V48.1456C14.6904 48.9585 15.3492 49.6171 16.1619 49.6171H25.6424C26.4551 49.6171 27.1139 48.9585 27.1139 48.1456V38.6653C27.1139 37.8524 26.4551 37.1938 25.6424 37.1938ZM24.1709 46.6743H17.6334V40.1368H24.1711V46.6743H24.1709Z" fill="#4B4B4B"/>
<path d="M43.0145 37.1938H33.534C32.7213 37.1938 32.0625 37.8524 32.0625 38.6653V48.1456C32.0625 48.9585 32.7213 49.6171 33.534 49.6171H43.0145C43.8271 49.6171 44.4859 48.9585 44.4859 48.1456V38.6653C44.4857 37.8524 43.827 37.1938 43.0145 37.1938ZM41.543 46.6743H35.0053V40.1368H41.543V46.6743Z" fill="#4B4B4B"/>
<path d="M60.3855 37.1938H50.9051C50.0924 37.1938 49.4336 37.8524 49.4336 38.6653V48.1456C49.4336 48.9585 50.0924 49.6171 50.9051 49.6171H60.3855C61.1982 49.6171 61.857 48.9585 61.857 48.1456V38.6653C61.857 37.8524 61.1982 37.1938 60.3855 37.1938ZM58.9143 46.6743H52.3766V40.1368H58.9143V46.6743Z" fill="#4B4B4B"/>
<path d="M25.6424 57.5469H16.1619C15.3492 57.5469 14.6904 58.2055 14.6904 59.0184V68.4988C14.6904 69.3117 15.3492 69.9703 16.1619 69.9703H25.6424C26.4551 69.9703 27.1139 69.3117 27.1139 68.4988V59.0184C27.1139 58.2055 26.4551 57.5469 25.6424 57.5469ZM24.1709 67.0273H17.6334V60.4896H24.1711V67.0273H24.1709Z" fill="#4B4B4B"/>
<path d="M43.0145 57.5469H33.534C32.7213 57.5469 32.0625 58.2055 32.0625 59.0184V68.4988C32.0625 69.3117 32.7213 69.9703 33.534 69.9703H43.0145C43.8271 69.9703 44.4859 69.3117 44.4859 68.4988V59.0184C44.4857 58.2055 43.8271 57.5469 43.0145 57.5469ZM41.543 67.0273H35.0053V60.4896H41.543V67.0273Z" fill="#4B4B4B"/>
<path d="M92.3975 11.3645H92.3469H83.2041V6.04687C83.2041 2.82734 80.5848 0.208008 77.3654 0.208008C74.1459 0.208008 71.5268 2.82734 71.5268 6.04687V11.3645H22.393V6.04687C22.393 2.82734 19.7736 0.208008 16.5543 0.208008C13.335 0.208008 10.7156 2.82734 10.7156 6.04687V11.3645H1.52207H1.47148C0.658789 11.3645 0 12.023 0 12.8357V52.8068C0 53.6195 0.658789 54.2781 1.47148 54.2781C2.28418 54.2781 2.94297 53.6193 2.94297 52.8066V30.2338H90.8756V38.6654C90.8756 39.4783 91.5344 40.1369 92.3471 40.1369C93.1598 40.1369 93.8186 39.4783 93.8186 38.6654V29.1398C93.8506 29.0191 93.8691 28.8932 93.8691 28.7625V12.8357C93.8689 12.023 93.2102 11.3645 92.3975 11.3645ZM74.4697 6.04687C74.4697 4.45 75.7689 3.15098 77.3654 3.15098C78.9623 3.15098 80.2611 4.45019 80.2611 6.04687V17.5525C80.2611 17.7521 80.2408 17.9471 80.2023 18.1353C79.9318 19.4537 78.7625 20.4484 77.3654 20.4484C75.7686 20.4484 74.4697 19.1492 74.4697 17.5525V6.04687ZM13.6586 6.04687C13.6586 4.45 14.9576 3.15098 16.5543 3.15098C18.151 3.15098 19.45 4.45019 19.45 6.04687V17.5525C19.45 19.1494 18.1508 20.4484 16.5543 20.4484C14.9578 20.4484 13.6586 19.149 13.6586 17.5523V6.04687ZM90.8754 27.2908H2.99355V14.307H10.7156V17.5523C10.7156 20.7719 13.3348 23.3912 16.5543 23.3912C19.7738 23.3912 22.393 20.7719 22.393 17.5523V14.307H71.5271V17.5523C71.5271 20.7719 74.1465 23.3912 77.3658 23.3912C80.5854 23.3912 83.2045 20.7719 83.2045 17.5523V14.307H90.876V27.2908H90.8754Z" fill="#4B4B4B"/>
</svg>
