<svg width="100" height="100" viewBox="0 0 100 100" fill="none" xmlns="http://www.w3.org/2000/svg">
<path d="M92.9996 45.1882L90.41 34.8298C91.118 34.6794 91.6492 34.0513 91.6492 33.2987V31.6286C91.6492 28.0024 88.699 25.0524 85.0731 25.0524H73.2777V21.6075C73.2777 19.8231 71.8262 18.3716 70.0418 18.3716H9.91641C8.13203 18.3716 6.68047 19.8231 6.68047 21.6075V50.0001C6.68047 50.8647 7.38145 51.5659 8.24629 51.5659C9.11094 51.5659 9.81211 50.8649 9.81211 50.0001V21.6075C9.81211 21.5499 9.85879 21.5032 9.91641 21.5032H70.0416C70.0992 21.5032 70.1459 21.5499 70.1459 21.6075V50.0005C70.1459 50.8651 70.8469 51.5663 71.7117 51.5663C72.5764 51.5663 73.2775 50.8653 73.2775 50.0005V48.2255H91.748C91.7496 48.2255 91.7508 48.2259 91.7522 48.2259C91.7537 48.2259 91.7551 48.2257 91.7564 48.2257C94.0293 48.2272 95.9592 49.719 96.6221 51.7747H91.7533C90.8887 51.7747 90.1875 52.4757 90.1875 53.3405V56.6807C90.1875 59.386 92.3883 61.5868 95.0936 61.5868H96.8682V68.4761H92.774C91.4291 64.5927 87.7375 61.7954 83.4025 61.7954C79.0676 61.7954 75.3758 64.5927 74.0311 68.4761H73.2771V56.6806C73.2771 55.8159 72.5762 55.1147 71.7113 55.1147C70.8467 55.1147 70.1455 55.8157 70.1455 56.6806V68.4757H37.6596C36.3146 64.5923 32.623 61.795 28.2881 61.795C23.9531 61.795 20.2613 64.5923 18.9166 68.4757H9.91641C9.85879 68.4757 9.81211 68.429 9.81211 68.3714V64.9266H16.5971C17.4617 64.9266 18.1629 64.2257 18.1629 63.3608C18.1629 62.496 17.4619 61.795 16.5971 61.795H1.56582C0.701172 61.795 0 62.496 0 63.3608C0 64.2257 0.700977 64.9266 1.56582 64.9266H6.68066V68.3714C6.68066 70.1557 8.13223 71.6073 9.9166 71.6073H18.3744C18.374 71.6421 18.3717 71.6766 18.3717 71.7116C18.3717 77.1796 22.8203 81.628 28.2881 81.628C33.7559 81.628 38.2045 77.1796 38.2045 71.7116C38.2045 71.6765 38.2021 71.6421 38.2018 71.6073H73.4889C73.4885 71.6421 73.4861 71.6766 73.4861 71.7116C73.4861 77.1796 77.9348 81.628 83.4025 81.628C88.8703 81.628 93.3189 77.1796 93.3189 71.7116C93.3189 71.6765 93.3166 71.6421 93.3162 71.6073H98.434C99.2986 71.6073 99.9998 70.9063 99.9998 70.0415V53.3401C100 49.2167 96.9576 45.7907 92.9996 45.1882ZM73.2777 28.1839H85.0731C86.9725 28.1839 88.5178 29.7292 88.5178 31.6286V31.7329H73.2777V28.1839ZM73.2777 45.094V34.8644H87.1908L89.7482 45.094H73.2777ZM28.2881 78.497C24.5469 78.497 21.5031 75.4534 21.5031 71.712C21.5031 67.9706 24.5469 64.927 28.2881 64.927C32.0293 64.927 35.073 67.9706 35.073 71.712C35.073 75.4534 32.0293 78.497 28.2881 78.497ZM83.4029 78.497C79.6617 78.497 76.618 75.4534 76.618 71.712C76.618 67.9706 79.6617 64.927 83.4029 64.927C87.1441 64.927 90.1879 67.9706 90.1879 71.712C90.1879 75.4534 87.1441 78.497 83.4029 78.497ZM96.8686 58.4552H95.0939C94.1154 58.4552 93.3193 57.6591 93.3193 56.6806V54.9059H96.8684V58.4552H96.8686Z" fill="#4B4B4B"/>
<path d="M28.2877 68.4761C26.5033 68.4761 25.0518 69.9276 25.0518 71.712C25.0518 73.4964 26.5033 74.948 28.2877 74.948C30.0721 74.948 31.5236 73.4964 31.5236 71.712C31.5236 69.9276 30.0721 68.4761 28.2877 68.4761Z" fill="#4B4B4B"/>
<path d="M83.4029 68.4761C81.6186 68.4761 80.167 69.9276 80.167 71.712C80.167 73.4964 81.6186 74.948 83.4029 74.948C85.1873 74.948 86.6389 73.4964 86.6389 71.712C86.6389 69.9276 85.1873 68.4761 83.4029 68.4761Z" fill="#4B4B4B"/>
<path d="M65.0309 61.7954H41.6488C40.7842 61.7954 40.083 62.4964 40.083 63.3612C40.083 64.2261 40.784 64.927 41.6488 64.927H65.0309C65.8955 64.927 66.5967 64.2261 66.5967 63.3612C66.5967 62.4964 65.8957 61.7954 65.0309 61.7954Z" fill="#4B4B4B"/>
<path d="M24.9475 55.1147H4.90566C4.04102 55.1147 3.33984 55.8157 3.33984 56.6806C3.33984 57.5454 4.04082 58.2464 4.90566 58.2464H24.9475C25.8121 58.2464 26.5133 57.5454 26.5133 56.6806C26.5133 55.8157 25.8121 55.1147 24.9475 55.1147Z" fill="#4B4B4B"/>
<path d="M54.4475 33.8613C53.8362 33.25 52.8446 33.25 52.2333 33.8615L38.309 47.7855L31.0655 40.542C30.454 39.9304 29.4625 39.9304 28.8512 40.542C28.2397 41.1535 28.2397 42.1447 28.8512 42.7562L37.202 51.107C37.5077 51.4129 37.9085 51.5656 38.309 51.5656C38.7096 51.5656 39.1106 51.4129 39.4161 51.107L54.4473 36.0758C55.0589 35.464 55.0589 34.4728 54.4475 33.8613Z" fill="#4B4B4B"/>
</svg>
