<svg width="100" height="100" viewBox="0 0 100 100" fill="none" xmlns="http://www.w3.org/2000/svg">
<g clip-path="url(#clip0_404_256)">
<path d="M21.4452 17.8155L21.5416 22.4058C21.5512 22.8638 21.7745 23.2909 22.1452 23.5601C22.3983 23.744 22.7004 23.8399 23.0061 23.8399C23.1481 23.8399 23.2905 23.8194 23.4293 23.7774L27.8268 22.4501L32.2243 23.7774C32.6625 23.9099 33.1381 23.83 33.5084 23.5603C33.879 23.2909 34.1024 22.864 34.112 22.406L34.2083 17.8157L36.8276 14.0409C37.0885 13.6647 37.1586 13.1882 37.017 12.7526C36.8754 12.3171 36.5381 11.9729 36.1057 11.8224L31.7696 10.3128L28.9938 6.65498C28.7168 6.29014 28.285 6.07568 27.8268 6.07568C27.3686 6.07568 26.937 6.29014 26.66 6.65498L23.8838 10.3126L19.5477 11.8222C19.1153 11.9728 18.7782 12.3169 18.6364 12.7524C18.4946 13.188 18.5649 13.6645 18.8258 14.0407L21.4452 17.8155ZM25.2649 12.9341C25.5373 12.8394 25.7756 12.6661 25.95 12.4362L27.8268 9.96357L29.7032 12.4362C29.8778 12.6661 30.1161 12.8392 30.3885 12.9341L33.3211 13.9552L31.5495 16.5083C31.3852 16.7448 31.2944 17.0247 31.2885 17.3126L31.2235 20.4151L28.25 19.5177C27.9743 19.4341 27.6793 19.4341 27.4036 19.5177L24.4301 20.4151L24.3649 17.3126C24.359 17.0245 24.2682 16.7448 24.104 16.5083L22.3323 13.9552L25.2649 12.9341Z" fill="#4B4B4B"/>
<path d="M43.621 11.7348L43.7175 16.3244C43.7271 16.7822 43.9499 17.209 44.3204 17.4783C44.6907 17.7479 45.1657 17.8281 45.6038 17.6965L50.0024 16.3738L54.4011 17.6965C54.5396 17.7381 54.6817 17.7584 54.823 17.7584C55.1288 17.7584 55.4312 17.6625 55.6845 17.4781C56.0548 17.2088 56.2778 16.782 56.2874 16.3242L56.3839 11.7346L59.0026 7.96543C59.264 7.58945 59.3343 7.11309 59.1931 6.67754C59.0519 6.24199 58.7151 5.89766 58.2829 5.74668L53.9452 4.23125L51.1687 0.578516C50.8919 0.214258 50.4606 0.000195313 50.003 0C50.0028 0 50.0026 0 50.0024 0C49.545 0 49.114 0.213672 48.837 0.577539L46.0546 4.23164L41.7216 5.74727C41.2894 5.89824 40.9528 6.24258 40.8116 6.67813C40.6704 7.11348 40.7411 7.59004 41.0022 7.96582L43.621 11.7348ZM47.437 6.85176C47.7081 6.75723 47.9452 6.58496 48.1189 6.35664L50.0015 3.88438L51.8798 6.35547C52.0538 6.58457 52.2913 6.75723 52.5628 6.85195L55.4968 7.87695L53.7257 10.4262C53.561 10.6629 53.47 10.943 53.4642 11.2313L53.3989 14.3359L50.4243 13.4414C50.2866 13.4 50.1444 13.3795 50.0024 13.3795C49.8605 13.3795 49.7183 13.4 49.5806 13.4414L46.6062 14.3359L46.5409 11.2313C46.5351 10.9428 46.444 10.6629 46.2794 10.4262L44.5079 7.87637L47.437 6.85176Z" fill="#4B4B4B"/>
<path d="M65.7928 17.8157L65.8942 22.4075C65.9043 22.8653 66.1278 23.2919 66.4983 23.5608C66.869 23.83 67.3442 23.9099 67.7818 23.7774L72.1791 22.4503L76.5705 23.7774C76.7096 23.8194 76.8524 23.8399 76.9944 23.8399C77.2996 23.8399 77.6014 23.7444 77.8545 23.5606C78.225 23.2919 78.4486 22.8649 78.4588 22.4073L78.5602 17.8163L81.1803 14.0409C81.4412 13.6645 81.5113 13.188 81.3697 12.7524C81.2281 12.3169 80.891 11.9728 80.4584 11.8222L76.1223 10.3126L73.3461 6.65498C73.0694 6.29033 72.6379 6.07588 72.1799 6.07568C72.1797 6.07568 72.1795 6.07568 72.1793 6.07568C71.7217 6.07568 71.2902 6.28975 71.0131 6.654L68.2315 10.3124L63.8996 11.8222C63.4676 11.9728 63.1305 12.3165 62.9891 12.7519C62.8473 13.187 62.917 13.6634 63.1776 14.0396L65.7928 17.8157ZM69.6123 12.9341C69.8842 12.8394 70.1219 12.6667 70.2963 12.4374L72.1781 9.9624L74.0559 12.4364C74.2303 12.6663 74.4686 12.8394 74.741 12.9343L77.6736 13.9554L75.9018 16.5083C75.7379 16.7446 75.6471 17.0239 75.6408 17.3112L75.5723 20.4153L72.6029 19.5179C72.3266 19.4343 72.0319 19.4341 71.7559 19.5179L68.7805 20.4159L68.7119 17.3112C68.7057 17.0241 68.6151 16.7454 68.4518 16.5095L66.6824 13.9554L69.6123 12.9341Z" fill="#4B4B4B"/>
<path d="M70.5017 41.5531C70.5017 36.0773 68.3685 30.9299 64.4954 27.0598C56.5058 19.0699 43.5007 19.0699 35.5048 27.0598C27.5154 35.0494 27.5152 48.0547 35.5052 56.0514C39.503 60.0461 44.7528 62.0436 50.0023 62.0436C55.2517 62.0436 60.5005 60.0459 64.4954 56.0508C68.3687 52.1773 70.5017 47.0285 70.5017 41.5531ZM37.5763 29.1316C41.0032 25.707 45.5023 23.9953 50.0021 23.9953C54.5009 23.9953 59.0003 25.7078 62.4241 29.1316C65.7439 32.4488 67.572 36.8602 67.572 41.5531C67.572 45.9947 65.9321 50.1842 62.9421 53.4348C62.1599 50.1246 60.1214 47.2074 57.2435 45.3293C58.4734 43.7639 59.2095 41.7934 59.2095 39.6529C59.2095 34.5762 55.0794 30.4459 50.0027 30.4459C44.9259 30.4459 40.796 34.576 40.796 39.6529C40.796 41.7936 41.5323 43.7641 42.762 45.3295C39.8831 47.2082 37.8443 50.1268 37.0626 53.4383C30.7363 46.5514 30.9056 35.8023 37.5763 29.1316ZM43.7259 39.6529C43.7259 36.1916 46.5417 33.3756 50.0029 33.3756C53.4642 33.3756 56.28 36.1916 56.28 39.6529C56.28 43.1143 53.4642 45.9303 50.0029 45.9303C46.5417 45.9303 43.7259 43.1143 43.7259 39.6529ZM39.6632 55.7617C39.9038 52.2576 41.9308 49.0932 45.0191 47.3883C46.4568 48.3178 48.1671 48.86 50.0029 48.86C51.8386 48.86 53.5489 48.3178 54.9866 47.3883C58.0739 49.0928 60.1007 52.2559 60.3425 55.7588C54.2068 60.2313 45.803 60.2322 39.6632 55.7617Z" fill="#4B4B4B"/>
<path d="M97.4033 31.9549C96.3912 30.8055 94.9949 30.119 93.4715 30.0215C91.9492 29.9223 90.4785 30.4284 89.3283 31.4424C88.5824 32.0997 88.033 32.9188 87.7115 33.8284C87.4549 33.7756 87.1938 33.7383 86.9293 33.7204C85.41 33.6217 83.9359 34.1268 82.7842 35.1405C81.6326 36.1536 80.9449 37.5493 80.8473 39.0737L80.6805 41.7596L79.9033 53.9901C79.5063 54.1965 79.118 54.4407 78.7434 54.7241C78.7244 54.7381 78.7061 54.753 78.6877 54.7682L68.4861 63.2875C63.9977 67.0323 63.5451 70.2961 63.1322 75.7428L62.4848 84.3243H60.8887C59.0734 84.3243 57.5967 85.8036 57.5967 87.6219V96.7081C57.5967 98.5233 59.0736 100 60.8887 100H70.2799C71.0891 100 71.7447 99.3444 71.7447 98.5352C71.7447 97.726 71.0891 97.0704 70.2799 97.0704H60.8887C60.6922 97.0704 60.5264 96.9044 60.5264 96.7081V87.6219C60.5264 87.4225 60.6924 87.254 60.8887 87.254H86.4467C86.6432 87.254 86.809 87.4223 86.809 87.6219V96.7081C86.809 96.9045 86.643 97.0704 86.4467 97.0704H77.0611C76.252 97.0704 75.5963 97.726 75.5963 98.5352C75.5963 99.3444 76.252 100 77.0611 100H86.4469C88.2621 100 89.7389 98.5231 89.7389 96.7081V87.6219C89.7389 85.8036 88.2619 84.3243 86.4469 84.3243H85.5377C92.9854 76.5743 96.7854 68.1575 97.4279 58.0903L98.8219 36.0979C98.9193 34.5758 98.4156 33.1047 97.4033 31.9549ZM83.6047 41.943L83.7713 39.2579C83.8188 38.5174 84.1557 37.8364 84.7195 37.3399C85.2836 36.8436 86.002 36.5958 86.7359 36.6438C86.9318 36.6573 87.1225 36.6946 87.3078 36.7458L86.2088 54.0348C85.8408 53.8149 85.4457 53.6309 85.0266 53.4922C84.3336 53.2629 83.6139 53.1649 82.8902 53.1877L83.6047 41.943ZM95.8979 35.9114L94.5039 57.9042C93.8521 68.1127 89.6725 76.5215 81.3684 84.3243H65.4225L66.0533 75.9639C66.4369 70.9067 66.7582 68.5442 70.3633 65.5366L80.5367 57.0409C82.1084 55.8665 83.4463 56.0553 84.1059 56.2733C84.9924 56.5667 85.6656 57.234 85.907 58.0596C86.2383 59.1893 85.7588 60.4713 84.5553 61.6711C83.7613 62.4651 82.5234 63.7526 81.2129 65.1157C79.4346 66.9655 77.4186 69.0618 76.4398 69.9932C75.8537 70.5506 75.8307 71.4782 76.3883 72.0643C76.9457 72.6502 77.8731 72.6735 78.4594 72.1159C79.4856 71.1397 81.4373 69.1096 83.3248 67.1465C84.6252 65.7942 85.8533 64.5166 86.6254 63.7446C88.3525 62.0229 89.1508 59.985 88.8895 58.0424L90.3186 35.5592C90.366 34.8178 90.7023 34.1364 91.2652 33.6405C91.8275 33.145 92.5424 32.8979 93.2842 32.9452C94.0272 32.9928 94.709 33.3288 95.2043 33.8913C95.6992 34.4528 95.9457 35.17 95.8979 35.9114Z" fill="#4B4B4B"/>
<path d="M39.1175 84.3241H37.5214L36.8738 75.7422C36.4611 70.2995 36.0089 67.0376 31.5204 63.2877L21.3183 54.768C21.2999 54.7528 21.2814 54.7381 21.2624 54.7235C20.8784 54.4335 20.4906 54.1899 20.1021 53.9856L19.1531 39.0704C19.0556 37.5493 18.3691 36.1538 17.2202 35.1411C16.0699 34.1272 14.5968 33.6215 13.072 33.7208C12.807 33.7387 12.5476 33.775 12.2937 33.8266C11.9716 32.9176 11.4212 32.0989 10.6743 31.4416C9.52258 30.4284 8.04954 29.9223 6.52923 30.0215C3.37727 30.2235 0.977078 32.9495 1.17884 36.0971L2.57844 58.0901C3.21673 68.1561 7.01458 76.5731 14.463 84.3241H13.5593C11.7441 84.3241 10.2673 85.8034 10.2673 87.6217V96.7079C10.2673 98.5231 11.7443 99.9999 13.5593 99.9999H22.945C23.7542 99.9999 24.4099 99.3442 24.4099 98.535C24.4099 97.7258 23.7542 97.0702 22.945 97.0702H13.5595C13.363 97.0702 13.1972 96.9042 13.1972 96.7079V87.6217C13.1972 87.4223 13.3632 87.2538 13.5595 87.2538H39.1175C39.314 87.2538 39.4798 87.4221 39.4798 87.6217V96.7079C39.4798 96.9044 39.3138 97.0702 39.1175 97.0702H29.7318C28.9226 97.0702 28.2669 97.7258 28.2669 98.535C28.2669 99.3442 28.9226 99.9999 29.7318 99.9999H39.1175C40.9327 99.9999 42.4095 98.5229 42.4095 96.7079V87.6217C42.4097 85.8034 40.9327 84.3241 39.1175 84.3241ZM13.2646 36.644C14.0036 36.5981 14.7206 36.8434 15.2829 37.3391C15.8458 37.8352 16.1822 38.5166 16.2294 39.2573L17.115 53.1747C15.8921 53.1389 14.7495 53.4624 13.7974 54.0331L12.6982 36.7442C12.881 36.6938 13.0691 36.6573 13.2646 36.644ZM5.50227 57.9044L4.10266 35.9106C4.00423 34.3743 5.17669 33.044 6.71653 32.9452C7.4593 32.8993 8.17512 33.1448 8.73899 33.6411C9.30286 34.1374 9.63977 34.8186 9.68704 35.5583L9.7093 35.9086C9.71008 35.9245 9.71106 35.9403 9.71223 35.9561L11.1148 58.019C10.8665 59.7768 11.4521 61.8215 13.3747 63.744C14.1654 64.5325 15.4236 65.8403 16.756 67.2251C18.6136 69.1559 20.5345 71.1524 21.5466 72.1155C22.1329 72.6729 23.0599 72.6501 23.6177 72.0639C24.1755 71.4778 24.1523 70.5504 23.5661 69.9928C22.6007 69.0745 20.7027 67.1014 18.8671 65.1938C17.5241 63.7979 16.2556 62.4794 15.445 61.671C13.5552 59.7811 13.7781 58.0782 14.6165 57.1151C15.5878 55.9987 17.5634 55.6182 19.4695 57.0407L29.6425 65.536C33.2482 68.5479 33.5695 70.9094 33.9527 75.9629L34.5835 84.3239H18.6322C10.3273 76.5206 6.14934 68.1118 5.50227 57.9044Z" fill="#4B4B4B"/>
</g>
<defs>
<clipPath id="clip0_404_256">
<rect width="100" height="100" fill="white"/>
</clipPath>
</defs>
</svg>
