<svg width="100" height="100" viewBox="0 0 100 100" fill="none" xmlns="http://www.w3.org/2000/svg">
<path d="M16.8916 27.979H67.3137C67.6245 27.979 67.9226 27.8555 68.1423 27.6358C68.3621 27.416 68.4856 27.1179 68.4856 26.8071C68.4856 26.4963 68.3621 26.1983 68.1423 25.9785C67.9226 25.7587 67.6245 25.6353 67.3137 25.6353H16.8916C16.5808 25.6353 16.2827 25.7587 16.063 25.9785C15.8432 26.1983 15.7197 26.4963 15.7197 26.8071C15.7197 27.1179 15.8432 27.416 16.063 27.6358C16.2827 27.8555 16.5808 27.979 16.8916 27.979Z" fill="#4B4B4B"/>
<path d="M67.3133 37.668H32.9346C32.6238 37.668 32.3257 37.7914 32.1059 38.0112C31.8862 38.231 31.7627 38.529 31.7627 38.8398C31.7627 39.1506 31.8862 39.4487 32.1059 39.6685C32.3257 39.8883 32.6238 40.0117 32.9346 40.0117H67.3133C67.6241 40.0117 67.9221 39.8883 68.1419 39.6685C68.3617 39.4487 68.4851 39.1506 68.4851 38.8398C68.4851 38.529 68.3617 38.231 68.1419 38.0112C67.9221 37.7914 67.6241 37.668 67.3133 37.668Z" fill="#4B4B4B"/>
<path d="M49.8947 49.7007H32.9346C32.6238 49.7007 32.3257 49.8242 32.1059 50.0439C31.8862 50.2637 31.7627 50.5618 31.7627 50.8726C31.7627 51.1834 31.8862 51.4814 32.1059 51.7012C32.3257 51.921 32.6238 52.0444 32.9346 52.0444H49.8947C50.2055 52.0444 50.5036 51.921 50.7234 51.7012C50.9431 51.4814 51.0666 51.1834 51.0666 50.8726C51.0666 50.5618 50.9431 50.2637 50.7234 50.0439C50.5036 49.8242 50.2055 49.7007 49.8947 49.7007Z" fill="#4B4B4B"/>
<path d="M41.6443 61.7329H16.8916C16.5808 61.7329 16.2827 61.8564 16.063 62.0761C15.8432 62.2959 15.7197 62.594 15.7197 62.9048C15.7197 63.2156 15.8432 63.5137 16.063 63.7334C16.2827 63.9532 16.5808 64.0767 16.8916 64.0767H41.6443C41.9551 64.0767 42.2532 63.9532 42.473 63.7334C42.6927 63.5137 42.8162 63.2156 42.8162 62.9048C42.8162 62.594 42.6927 62.2959 42.473 62.0761C42.2532 61.8564 41.9551 61.7329 41.6443 61.7329Z" fill="#4B4B4B"/>
<path d="M41.415 73.7656H16.8916C16.5808 73.7656 16.2827 73.8891 16.063 74.1089C15.8432 74.3286 15.7197 74.6267 15.7197 74.9375C15.7197 75.2483 15.8432 75.5464 16.063 75.7661C16.2827 75.9859 16.5808 76.1094 16.8916 76.1094H41.415C41.5689 76.1094 41.7213 76.0791 41.8635 76.0202C42.0057 75.9613 42.1349 75.875 42.2437 75.7661C42.3525 75.6573 42.4388 75.5281 42.4977 75.386C42.5566 75.2438 42.5869 75.0914 42.5869 74.9375C42.5869 74.7836 42.5566 74.6312 42.4977 74.489C42.4388 74.3469 42.3525 74.2177 42.2437 74.1089C42.1349 74 42.0057 73.9137 41.8635 73.8548C41.7213 73.7959 41.5689 73.7656 41.415 73.7656Z" fill="#4B4B4B"/>
<path d="M21.1773 52.4426C21.1672 52.4426 21.1578 52.441 21.1471 52.441C21.1363 52.441 21.1275 52.4422 21.117 52.4426C20.3049 52.434 19.5288 52.1057 18.9572 51.5287C18.3856 50.9518 18.0645 50.1727 18.0635 49.3605C18.0635 49.0497 17.94 48.7517 17.7202 48.5319C17.5005 48.3121 17.2024 48.1887 16.8916 48.1887C16.5808 48.1887 16.2827 48.3121 16.063 48.5319C15.8432 48.7517 15.7197 49.0497 15.7197 49.3605C15.7215 50.5958 16.1439 51.7937 16.9174 52.7568C17.6909 53.7199 18.7694 54.3908 19.9752 54.659V56.1479C19.9752 56.4587 20.0987 56.7567 20.3184 56.9765C20.5382 57.1963 20.8363 57.3197 21.1471 57.3197C21.4579 57.3197 21.7559 57.1963 21.9757 56.9765C22.1955 56.7567 22.3189 56.4587 22.3189 56.1479V54.659C23.6248 54.3703 24.778 53.6097 25.5575 52.5229C26.3369 51.4362 26.6876 50.1 26.5424 48.7705C26.3971 47.4411 25.7661 46.2121 24.7704 45.3193C23.7747 44.4266 22.4844 43.9329 21.1471 43.933C20.5372 43.933 19.941 43.7521 19.434 43.4132C18.9269 43.0744 18.5317 42.5928 18.2983 42.0293C18.065 41.4659 18.0039 40.8459 18.1229 40.2477C18.2419 39.6496 18.5356 39.1001 18.9669 38.6689C19.3982 38.2377 19.9476 37.944 20.5458 37.8251C21.1439 37.7061 21.7639 37.7672 22.3274 38.0006C22.8908 38.234 23.3724 38.6292 23.7112 39.1363C24.05 39.6434 24.2309 40.2395 24.2309 40.8494C24.2309 41.1602 24.3543 41.4583 24.5741 41.6781C24.7939 41.8978 25.0919 42.0213 25.4027 42.0213C25.7135 42.0213 26.0116 41.8978 26.2314 41.6781C26.4511 41.4583 26.5746 41.1602 26.5746 40.8494C26.5729 39.6141 26.1504 38.4163 25.3769 37.4532C24.6033 36.4901 23.5248 35.8192 22.3189 35.551V34.2559C22.3189 33.9451 22.1955 33.647 21.9757 33.4272C21.7559 33.2074 21.4579 33.084 21.1471 33.084C20.8363 33.084 20.5382 33.2074 20.3184 33.4272C20.0987 33.647 19.9752 33.9451 19.9752 34.2559V35.551C18.6696 35.8398 17.5166 36.6005 16.7373 37.6872C15.958 38.7738 15.6074 40.11 15.7526 41.4392C15.8979 42.7685 16.5287 43.9974 17.5243 44.8901C18.5198 45.7829 19.8099 46.2767 21.1471 46.2768C21.9614 46.2779 22.7422 46.6011 23.319 47.1759C23.8959 47.7507 24.2219 48.5303 24.2259 49.3446C24.2299 50.1589 23.9115 50.9418 23.3404 51.5222C22.7692 52.1026 21.9916 52.4335 21.1773 52.4426Z" fill="#4B4B4B"/>
<path d="M77.6528 51.3373V13.4387C77.6512 11.9126 77.0443 10.4495 75.9653 9.37045C74.8862 8.29136 73.4231 7.68442 71.8971 7.68281H56.924C56.6459 6.08032 55.8116 4.62724 54.5678 3.57923C53.324 2.53122 51.7505 1.95542 50.124 1.95313H34.0816C32.4543 1.95247 30.8791 2.5272 29.6346 3.57571C28.39 4.62421 27.5563 6.07897 27.2807 7.68281H12.3074C10.7814 7.68442 9.31831 8.29136 8.23925 9.37045C7.1602 10.4495 6.55331 11.9126 6.55176 13.4387V88.3063C6.55321 89.8324 7.16005 91.2956 8.23912 92.3747C9.31818 93.4539 10.7813 94.0609 12.3074 94.0625H55.8537V93.8979C58.6777 95.8099 61.8754 97.1004 65.2354 97.6842C68.5954 98.2679 72.0411 98.1315 75.3444 97.284C78.6478 96.4365 81.7335 94.8973 84.3975 92.768C87.0614 90.6388 89.2429 87.9682 90.7976 84.9328C92.3523 81.8975 93.2447 78.5666 93.4158 75.1606C93.5869 71.7545 93.0329 68.351 91.7902 65.1751C90.5476 61.9992 88.6448 59.1234 86.2076 56.7379C83.7704 54.3524 80.8545 52.5116 77.6528 51.3373ZM30.8572 5.63145C31.2797 5.20672 31.7822 4.87006 32.3357 4.64098C32.8892 4.41189 33.4826 4.29493 34.0816 4.29688H50.125C51.3287 4.30475 52.4804 4.78843 53.3287 5.64235C54.1771 6.49627 54.6532 7.6511 54.6532 8.85479C54.6532 10.0585 54.1771 11.2133 53.3287 12.0672C52.4804 12.9211 51.3287 13.4048 50.125 13.4127H34.0816C33.1802 13.4125 32.2991 13.145 31.5497 12.6441C30.8002 12.1432 30.2161 11.4313 29.8712 10.5985C29.5263 9.76569 29.436 8.8493 29.6118 7.96518C29.7877 7.08107 30.2217 6.26893 30.859 5.63145H30.8572ZM12.3074 91.7188C11.4028 91.7177 10.5356 91.3579 9.89598 90.7183C9.25634 90.0787 8.89654 89.2114 8.89551 88.3068V13.4387C8.89654 12.5341 9.25634 11.6668 9.89597 11.0272C10.5356 10.3875 11.4028 10.0276 12.3074 10.0266H27.2805C27.5586 11.6293 28.3931 13.0826 29.6371 14.1306C30.8811 15.1787 32.455 15.7544 34.0816 15.7564H50.125C51.752 15.7558 53.3266 15.1806 54.5709 14.1323C55.8152 13.084 56.6493 11.6299 56.926 10.0266H71.8981C72.8027 10.0276 73.6699 10.3874 74.3096 11.0271C74.9492 11.6668 75.309 12.5341 75.31 13.4387V50.6098C70.1069 49.2794 64.6085 49.7264 59.6886 51.8797C54.7687 54.0329 50.7098 57.769 48.157 62.4939C45.6041 67.2188 44.7039 72.6615 45.5994 77.9567C46.4949 83.252 49.1347 88.096 53.0992 91.7188H12.3074ZM69.3565 95.7031C65.0553 95.7031 60.8506 94.4277 57.2743 92.0381C53.698 89.6484 50.9106 86.252 49.2646 82.2782C47.6186 78.3044 47.1879 73.9317 48.0271 69.7132C48.8662 65.4946 50.9374 61.6196 53.9788 58.5782C57.0202 55.5368 60.8952 53.4656 65.1138 52.6265C69.3323 51.7873 73.705 52.218 77.6788 53.864C81.6526 55.51 85.049 58.2974 87.4387 61.8737C89.8283 65.4501 91.1037 69.6547 91.1037 73.9559C91.0972 79.7216 88.8039 85.2493 84.7269 89.3263C80.6499 93.4033 75.1222 95.6966 69.3565 95.7031Z" fill="#4B4B4B"/>
<path d="M77.6952 67.0155L66.3003 78.4103L61.0173 73.1273C60.7969 72.9104 60.4998 72.7894 60.1907 72.7907C59.8815 72.7919 59.5854 72.9152 59.3668 73.1338C59.1481 73.3524 59.0247 73.6485 59.0234 73.9576C59.0222 74.2668 59.1431 74.5639 59.3599 74.7843L65.4716 80.896C65.5804 81.0049 65.7096 81.0912 65.8518 81.1501C65.994 81.209 66.1464 81.2393 66.3003 81.2393C66.4542 81.2393 66.6066 81.209 66.7488 81.1501C66.891 81.0912 67.0202 81.0049 67.129 80.896L79.353 68.6718C79.4643 68.5635 79.5529 68.4342 79.6137 68.2914C79.6746 68.1486 79.7065 67.9951 79.7075 67.8399C79.7086 67.6847 79.6787 67.5308 79.6198 67.3872C79.5609 67.2436 79.474 67.1131 79.3643 67.0033C79.2545 66.8936 79.124 66.8067 78.9804 66.7478C78.8368 66.6889 78.6829 66.6591 78.5276 66.6602C78.3724 66.6612 78.2189 66.6931 78.0761 66.754C77.9333 66.8149 77.8041 66.9035 77.6958 67.0148L77.6952 67.0155Z" fill="#4B4B4B"/>
</svg>
